<?xml version="1.0" encoding="utf-8"?>
<!-- Generator: Adobe Illustrator 26.4.1, SVG Export Plug-In . SVG Version: 6.00 Build 0)  -->
<svg version="1.1" id="Layer_1" xmlns="http://www.w3.org/2000/svg" xmlns:xlink="http://www.w3.org/1999/xlink" x="0px" y="0px"
	 viewBox="0 0 72 72" style="enable-background:new 0 0 72 72;" xml:space="preserve">
<style type="text/css">
	.st0{fill:#FFFFFF;}
</style>
<g>
	<path class="st0" d="M49.47,24.75c0-5.06,0.01-10.13,0-15.19c-0.01-5.67-3.88-9.55-9.53-9.55C29.8,0,19.68,0,9.55,0.02
		c-0.87,0-1.75,0.1-2.59,0.3C2.79,1.33,0.05,4.8,0.04,9.09C0.02,19.37,0.11,29.66,0,39.94c-0.05,5,3.54,9.57,9.55,9.56
		c10.13-0.01,20.26,0,30.38-0.02c0.87,0,1.75-0.1,2.59-0.3c4.27-1.04,6.91-4.49,6.93-9.05C49.49,35,49.47,29.88,49.47,24.75z
		 M54.11,29.23c2.95,0,5.79-0.01,8.63,0c1.74,0.01,2.58,0.86,2.58,2.61c0.01,10.29,0.01,20.58,0,30.86c0,1.69-0.85,2.57-2.52,2.58
		c-10.35,0.01-20.7,0.01-31.05,0c-1.7,0-2.52-0.83-2.54-2.55c-0.02-2.5-0.01-5-0.01-7.5c0-0.37,0-0.73,0-1.12c-2.29,0-4.45,0-6.66,0
		c0,2.98-0.04,5.89,0.01,8.8c0.06,3.7,1.77,6.43,5.06,8.14c1.57,0.81,3.27,0.96,5.01,0.96c9.63,0,19.26,0,28.89-0.01
		c0.84,0,1.69-0.06,2.52-0.15c4.27-0.47,7.64-3.82,7.85-8.1c0.19-3.93,0.09-7.88,0.1-11.82c0.01-6.66,0.02-13.32,0-19.98
		c-0.02-5.08-3.13-8.8-8.07-9.26c-3.19-0.3-6.43-0.12-9.65-0.15c-0.05,0-0.1,0.07-0.15,0.12C54.11,24.81,54.11,26.96,54.11,29.23z"
		/>
	<path d="M49.47,24.75c0,5.13,0.02,10.25-0.01,15.38c-0.02,4.57-2.66,8.01-6.93,9.05c-0.84,0.21-1.73,0.3-2.59,0.3
		c-10.13,0.02-20.26,0-30.38,0.02c-6.01,0.01-9.6-4.55-9.55-9.56c0.1-10.28,0.01-20.57,0.03-30.85C0.05,4.8,2.79,1.33,6.95,0.32
		c0.84-0.2,1.73-0.3,2.59-0.3C19.68,0,29.8,0,39.93,0.01c5.66,0.01,9.52,3.88,9.53,9.55C49.48,14.62,49.47,19.69,49.47,24.75z"/>
	<path d="M54.11,29.23c0-2.27,0-4.42,0-6.56c0.06-0.05,0.11-0.12,0.15-0.12c3.22,0.03,6.45-0.15,9.65,0.15
		c4.94,0.46,8.05,4.18,8.07,9.26c0.02,6.66,0.01,13.32,0,19.98c-0.01,3.94,0.09,7.88-0.1,11.82c-0.21,4.28-3.58,7.63-7.85,8.1
		c-0.84,0.09-1.68,0.15-2.52,0.15c-9.63,0.01-19.26,0.01-28.89,0.01c-1.73,0-3.44-0.15-5.01-0.96c-3.29-1.71-4.99-4.44-5.06-8.14
		c-0.05-2.91-0.01-5.81-0.01-8.8c2.21,0,4.37,0,6.66,0c0,0.39,0,0.76,0,1.12c0,2.5-0.01,5,0.01,7.5c0.01,1.72,0.83,2.55,2.54,2.55
		c10.35,0.01,20.7,0.01,31.05,0c1.68,0,2.52-0.88,2.52-2.58c0.01-10.29,0.01-20.58,0-30.86c0-1.75-0.84-2.6-2.58-2.61
		C59.9,29.22,57.06,29.23,54.11,29.23z"/>
</g>
</svg>
