<?xml version="1.0" encoding="utf-8"?>
<!-- Generator: Adobe Illustrator 26.4.1, SVG Export Plug-In . SVG Version: 6.00 Build 0)  -->
<svg version="1.1" id="Layer_1" xmlns="http://www.w3.org/2000/svg" xmlns:xlink="http://www.w3.org/1999/xlink" x="0px" y="0px"
	 viewBox="0 0 72 72" style="enable-background:new 0 0 72 72;" xml:space="preserve">
<g>
	<path d="M49.47,17.98c-0.48,0-0.82,0-1.16,0c-5.57,0-11.14-0.03-16.7,0.01c-4.84,0.03-8.7,2.02-11.44,6.04
		c-1.64,2.4-2.23,5.12-2.23,8c0,5.38,0,10.76,0,16.14c0,0.4,0,0.81,0,1.15c-0.13,0.09-0.18,0.16-0.23,0.16
		c-3.25-0.04-6.51,0.09-9.74-0.16c-4.52-0.35-7.9-4.17-7.93-8.71c-0.04-5.75-0.01-11.51-0.01-17.26c0-4.75-0.02-9.51,0.01-14.26
		c0.02-4.31,2.83-7.83,7.02-8.8C7.82,0.1,8.64,0.02,9.45,0.02C19.62,0,29.78,0,39.95,0.01c5.62,0.01,9.49,3.87,9.51,9.49
		C49.48,12.27,49.47,15.05,49.47,17.98z"/>
	<path d="M71.99,47.26c0,5.13,0.02,10.25-0.01,15.38c-0.02,4.57-2.66,8.02-6.93,9.06c-0.84,0.21-1.73,0.3-2.59,0.3
		c-10.13,0.02-20.26,0.02-30.4,0.01c-5.67,0-9.53-3.87-9.53-9.54c0-10.29-0.01-20.57,0.01-30.86c0.01-4.29,2.74-7.76,6.91-8.78
		c0.84-0.21,1.73-0.3,2.59-0.3c10.13-0.02,20.26-0.02,30.4-0.01c5.66,0.01,9.53,3.87,9.55,9.54C72,37.13,71.99,42.2,71.99,47.26z
		 M47.22,65.31c5.1,0,10.19,0,15.29,0c2.04,0,2.82-0.79,2.82-2.85c0-10.1,0-20.19,0-30.29c0-2.17-0.75-2.92-2.94-2.92
		c-10.1,0-20.2,0-30.3,0c-2.15,0-2.9,0.73-2.9,2.85c0,10.13,0,20.26,0,30.39c0,2.08,0.76,2.83,2.83,2.83
		C37.09,65.31,42.16,65.31,47.22,65.31z"/>
</g>
</svg>
